<svg class="icon" viewBox="0 0 1024 1024" xmlns="http://www.w3.org/2000/svg" width="200" height="200"><path d="M260.267 938.667c45.516-1.127 84.48-17.63 116.906-49.494 32.99-33.57 49.494-73.932 49.494-121.173s-16.504-87.33-49.494-120.32c-32.426-32.427-71.407-49.22-116.906-50.347H768c47.24 0 87.313 16.504 120.32 49.494 33.587 33.57 50.347 73.932 50.347 121.173s-16.76 87.33-50.347 120.32c-33.007 33.587-73.08 50.347-120.32 50.347H260.267z"/><path d="M260.267 955.733H256c-51.695 0-96.53-18.62-133.24-55.347C86.597 864.24 68.268 819.695 68.268 768c0-51.61 18.295-96.41 54.391-133.137 36.932-36.3 81.715-54.596 133.342-54.596h512c51.678 0 96.222 18.33 132.386 54.494 36.728 36.71 55.347 81.544 55.347 133.239 0 51.763-18.67 96.358-55.45 132.506-35.942 36.573-80.537 55.227-132.283 55.227H260.267zM365.039 921.6H768c42.854 0 78.234-14.797 108.151-45.244C906.803 846.234 921.6 810.871 921.6 768c0-42.923-14.83-78.592-45.346-109.107C846.302 628.958 810.906 614.4 768 614.4H364.373c8.67 6.23 16.965 13.295 24.884 21.214 36.147 36.147 54.476 80.691 54.476 132.386 0 51.61-18.295 96.41-54.391 133.137-7.748 7.612-15.838 14.421-24.303 20.463zM256 614.4c-42.957 0-78.677 14.575-109.21 44.595C116.992 689.34 102.4 725.043 102.4 768c0 42.923 14.558 78.319 44.493 108.254C177.408 906.769 213.094 921.6 256 921.6h4.045c41.318-1.058 75.725-15.667 105.165-44.595C395.008 846.66 409.6 810.957 409.6 768c0-42.923-14.558-78.319-44.493-108.254-29.44-29.44-63.795-44.288-105.062-45.346H256zm512-170.667H256c-51.678 0-96.512-18.62-133.24-55.347C86.597 352.24 68.268 307.695 68.268 256c0-51.61 18.295-96.41 54.391-133.137C159.59 86.563 204.39 68.267 256 68.267h512c51.678 0 96.222 18.33 132.386 54.494 36.728 36.71 55.347 81.544 55.347 133.239 0 51.78-18.67 96.358-55.45 132.489-35.959 36.59-80.537 55.244-132.283 55.244zm-4.045-34.133H768c42.854 0 78.217-14.797 108.151-45.244C906.803 334.234 921.6 298.871 921.6 256c0-42.906-14.83-78.592-45.346-109.107C846.302 116.958 810.906 102.4 768 102.4h-4.045c-41.25 1.058-75.622 15.616-105.045 44.493C628.958 177.408 614.4 213.094 614.4 256s14.558 78.319 44.493 108.237c29.44 29.457 63.812 44.305 105.062 45.363zM256 102.4c-42.957 0-78.677 14.592-109.21 44.595C116.992 177.323 102.4 213.043 102.4 256c0 42.906 14.558 78.319 44.493 108.254C177.408 394.769 213.094 409.6 256 409.6h403.627c-8.67-6.23-16.965-13.312-24.866-21.214-36.165-36.147-54.494-80.691-54.494-132.386 0-51.627 18.295-96.41 54.408-133.137l.205-.205c7.646-7.526 15.667-14.285 24.03-20.258H256z"/></svg>