<svg t="1572706035346" class="icon" viewBox="0 0 1024 1024" version="1.1" xmlns="http://www.w3.org/2000/svg" p-id="11221" width="200" height="200"><path d="M358.932 473.593l76.103 0 0 228.348-76.103 0 0-228.348Z" p-id="11222"></path><path d="M588.968 473.593l76.104 0 0 228.348-76.104 0 0-228.348Z" p-id="11223"></path><path d="M474.357 473.593l76.103 0 0 228.348-76.103 0 0-228.348Z" p-id="11224"></path><path d="M512 30.129C245.87 30.129 30.129 245.87 30.129 512S245.87 993.871 512 993.871 993.871 778.13 993.871 512 778.13 30.129 512 30.129zM703.336 741.814c0 20.932-16.968 37.9-37.9 37.9L358.564 779.714c-20.932 0-37.9-16.969-37.9-37.9L320.664 395.819l382.672 0L703.336 741.814zM741.849 356.696 282.151 356.696l0-74.123 116.098 0 0-0.386c0-20.932 16.968-37.9 37.9-37.9l151.7 0c20.932 0 37.9 16.968 37.9 37.9l0 0.386 116.098 0L741.847 356.696z" p-id="11225"></path></svg><svg t="1572706035346" class="icon" viewBox="0 0 1024 1024" version="1.1" xmlns="http://www.w3.org/2000/svg" p-id="11221" width="200" height="200"><path d="M358.932 473.593l76.103 0 0 228.348-76.103 0 0-228.348Z" p-id="11222"></path><path d="M588.968 473.593l76.104 0 0 228.348-76.104 0 0-228.348Z" p-id="11223"></path><path d="M474.357 473.593l76.103 0 0 228.348-76.103 0 0-228.348Z" p-id="11224"></path><path d="M512 30.129C245.87 30.129 30.129 245.87 30.129 512S245.87 993.871 512 993.871 993.871 778.13 993.871 512 778.13 30.129 512 30.129zM703.336 741.814c0 20.932-16.968 37.9-37.9 37.9L358.564 779.714c-20.932 0-37.9-16.969-37.9-37.9L320.664 395.819l382.672 0L703.336 741.814zM741.849 356.696 282.151 356.696l0-74.123 116.098 0 0-0.386c0-20.932 16.968-37.9 37.9-37.9l151.7 0c20.932 0 37.9 16.968 37.9 37.9l0 0.386 116.098 0L741.847 356.696z" p-id="11225"></path></svg>