<?xml version="1.0" standalone="no"?><!DOCTYPE svg PUBLIC "-//W3C//DTD SVG 1.1//EN" "http://www.w3.org/Graphics/SVG/1.1/DTD/svg11.dtd"><svg t="1572270850429" class="icon" viewBox="0 0 1024 1024" version="1.1" xmlns="http://www.w3.org/2000/svg" p-id="2068" xmlns:xlink="http://www.w3.org/1999/xlink" width="200" height="200"><defs><style type="text/css"></style></defs><path d="M128.952442 162.509211c-35.902698 0-64.99734 28.940123-64.99734 64.617693 0 35.677571 29.094642 64.60746 64.99734 64.60746s65.00041-28.92989 65.00041-64.60746C193.951829 191.450357 164.85514 162.509211 128.952442 162.509211L128.952442 162.509211zM933.280324 158.802796 294.242999 158.802796c-14.795984 0-26.761504 11.916401-26.761504 26.601868l0 73.653487c0 14.700817 11.961426 26.601868 26.761504 26.601868l639.038348 0c14.781658 0 26.762527-11.900028 26.762527-26.601868l0-73.653487C960.043874 170.718173 948.063005 158.802796 933.280324 158.802796L933.280324 158.802796zM933.280324 440.756399 294.242999 440.756399c-14.795984 0-26.761504 11.906168-26.761504 26.612101l0 73.646324c0 14.691607 11.961426 26.601868 26.761504 26.601868l639.038348 0c14.781658 0 26.762527-11.910261 26.762527-26.601868L960.043874 467.367477C960.043874 452.661543 948.063005 440.756399 933.280324 440.756399L933.280324 440.756399zM933.280324 722.707956 294.242999 722.707956c-14.795984 0-26.761504 11.905144-26.761504 26.590612l0 73.658603c0 14.685467 11.961426 26.611078 26.761504 26.611078l639.038348 0c14.781658 0 26.762527-11.92561 26.762527-26.611078l0-73.658603C960.043874 734.6131 948.063005 722.707956 933.280324 722.707956L933.280324 722.707956zM128.952442 444.462814c-35.902698 0-64.99734 28.930913-64.99734 64.617693 0 35.671431 29.094642 64.602344 64.99734 64.602344s65.00041-28.92989 65.00041-64.602344C193.951829 473.393727 164.85514 444.462814 128.952442 444.462814L128.952442 444.462814zM128.952442 726.418464c-35.902698 0-64.99734 28.92989-64.99734 64.608483s29.094642 64.60439 64.99734 64.60439 65.00041-28.92682 65.00041-64.60439S164.85514 726.418464 128.952442 726.418464L128.952442 726.418464zM128.952442 726.418464" p-id="2069"></path></svg>